<?xml version="1.0" standalone="no"?> 
<!DOCTYPE svg PUBLIC "-//W3C//DTD SVG 1.1//EN" "http://www.w3.org/Graphics/SVG/1.1/DTD/svg11.dtd" >
<svg xmlns="http://www.w3.org/2000/svg">
<defs>
  <font id="nnicon" horiz-adv-x="1000">
    <font-face font-family="nnicon"
      units-per-em="1000" ascent="1000"
      descent="0" />
    <missing-glyph horiz-adv-x="0" />
    <glyph glyph-name="badge"
      unicode="&#xE001;"
      horiz-adv-x="1000" d=" M934.644 235.221C934.644 235.221 848.778 218.352 761.645 200.742C703.534 137.346 645.704 74.093 645.704 74.093L521.185 282.379C514.159 281.957 507.1499999999999 281.395 499.9829999999999 281.395C492.7979999999999 281.395 485.807 282.028 478.7809999999999 282.379L354.281 74.092C354.281 74.092 296.468 137.347 238.409 200.74C151.276 218.35 65.358 235.2190000000001 65.358 235.2190000000001L200.795 461.7850000000001C178.977 504.6300000000001 166.385 552.6690000000001 166.385 603.6320000000001C166.385 781.613 315.733 925.907 499.9829999999999 925.907S833.5629999999999 781.649 833.5629999999999 603.6320000000001C833.5629999999999 552.6700000000001 820.9909999999999 504.6300000000001 799.1899999999998 461.7850000000001L934.644 235.221zM652.183 170.734C652.183 170.734 693.883 209.5110000000001 733.047 246.879C788.693 262.3770000000001 844.764 278.1900000000001 844.764 278.1900000000001L766.082 409.8780000000001C720.721 351.798 655.601 309.148 580.229 291.187L652.183 170.734zM155.237 278.153C155.237 278.153 211.36 262.3400000000001 266.936 246.8430000000001C306.135 209.4760000000001 347.817 170.734 347.817 170.734L419.8060000000001 291.115C344.4360000000001 309.146 279.298 351.761 233.9360000000001 409.803L155.237 278.153zM500.019 873.026C350.231 873.026 228.777 753.721 228.777 606.556C228.777 459.393 350.195 340.069 500.019 340.069C649.825 340.069 771.26 459.3929999999999 771.26 606.556C771.225 753.722 649.789 873.026 500.019 873.026zM500.019 420.1230000000001C395.065 420.1230000000001 309.957 503.5590000000001 309.957 606.4860000000001C309.957 709.414 395.03 792.8320000000001 500.019 792.8320000000001C604.99 792.8320000000001 690.081 709.4150000000001 690.081 606.4860000000001C690.08 503.558 604.955 420.1230000000001 500.019 420.1230000000001zM500.019 739.5989999999999C425.0370000000001 739.5989999999999 364.266 680.0070000000001 364.266 606.5219999999999C364.266 533.02 425.0370000000001 473.446 500.019 473.446C574.983 473.446 635.7719999999999 533.02 635.7719999999999 606.522C635.771 680.006 574.982 739.5989999999999 500.019 739.5989999999999z" />
    <glyph glyph-name="benefit"
      unicode="&#xE002;"
      horiz-adv-x="1000" d=" M895.834 727.326H621.888C668.5350000000001 759.182 693.157 801.647 693.157 857.9480000000001C693.157 907.74 662.692 940.291 613.6600000000001 940.291C569.9390000000001 940.291 522.714 916.698 500.0010000000001 878.008C477.287 916.698 430.062 941.5 386.341 941.5C337.3090000000001 941.5 306.844 907.551 306.844 857.748C306.844 801.447 331.466 759.183 378.113 727.326H104.166C78.976 727.326 58.5 710.147 58.5 681.077V611.319C58.5 582.249 78.975 552.1690000000001 104.166 552.1690000000001H131.246C128.842 552.1690000000001 127.485 545.167 127.485 537.7650000000001V117.6610000000001C127.485 88.6010000000001 147.96 58.5 173.151 58.5H826.851C852.032 58.5 872.517 88.601 872.517 117.6610000000001V537.765C872.517 545.1669999999999 871.1600000000001 552.169 868.7560000000001 552.169H895.8360000000001C921.0170000000002 552.169 941.5020000000002 582.249 941.5020000000002 611.319V681.077C941.5 710.1469999999999 921.016 727.326 895.834 727.326zM486.203 90.356H173.15C163.188 90.356 155.078 106.169 155.078 117.66V537.765C155.078 549.246 163.187 552.169 173.15 552.169H486.203V90.356zM486.203 584.004H173.15H104.166C94.204 584.004 86.094 599.827 86.094 611.318V681.076C86.094 692.578 94.203 695.479 104.166 695.479H486.204V584.004zM486.203 734.392C446.464 737.409 334.437 755.314 334.437 861.187C334.437 903.715 366.9480000000001 910.054 386.3400000000001 910.054C432.519 910.054 486.202 874.802 486.202 829.3299999999999V734.392zM513.797 829.33C513.797 874.802 567.471 910.054 613.659 910.054C633.052 910.054 665.562 903.714 665.562 861.187C665.562 809.565 639.445 772.62 587.936 751.34C559.5350000000001 739.617 530.327 735.7170000000001 513.796 734.423V829.33zM844.922 117.661C844.922 106.169 836.813 90.357 826.85 90.357H513.797V552.169H826.85C836.812 552.169 844.922 549.246 844.922 537.765V117.661zM513.797 584.004V695.48H895.835C905.797 695.48 913.907 692.579 913.907 681.077V611.319C913.907 599.827 905.798 584.005 895.835 584.005H826.85" />
    <glyph glyph-name="benefito"
      unicode="&#xE003;"
      horiz-adv-x="1000" d=" M895.834 727.326H621.888C668.5350000000001 759.182 693.157 801.647 693.157 857.9480000000001C693.157 907.74 662.692 940.291 613.6600000000001 940.291C569.9390000000001 940.291 522.714 916.698 500.0010000000001 878.008C477.287 916.698 430.062 941.5 386.332 941.5C337.3 941.5 306.844 907.551 306.844 857.748C306.844 801.447 331.466 759.183 378.113 727.326H104.156C78.975 727.326 58.5 710.147 58.5 681.077V611.319C58.5 582.249 78.975 552.1690000000001 104.156 552.1690000000001H131.245C128.842 552.1690000000001 127.484 545.167 127.484 537.7650000000001V117.6610000000001C127.484 88.6010000000001 147.959 58.5 173.14 58.5H826.85C852.0310000000001 58.5 872.5160000000001 88.601 872.5160000000001 117.6610000000001V537.765C872.5160000000001 545.1669999999999 871.1490000000001 552.169 868.7550000000001 552.169H895.8350000000002C921.0160000000002 552.169 941.5010000000002 582.249 941.5010000000002 611.319V681.077C941.5 710.1469999999999 921.016 727.326 895.834 727.326zM513.797 829.33C513.797 874.802 567.471 910.054 613.659 910.054C633.052 910.054 665.562 903.714 665.562 861.187C665.562 809.565 639.445 772.62 587.937 751.34C559.5360000000001 739.617 530.328 735.7170000000001 513.797 734.423V829.33zM490.606 693.788C490.606 699.738 494.808 704.5540000000001 500 704.5540000000001C505.183 704.5540000000001 509.394 699.739 509.394 693.788V607.6600000000001C509.394 601.72 505.184 596.894 500 596.894C494.808 596.894 490.606 601.72 490.606 607.6600000000001V693.788zM334.438 861.186C334.438 903.714 366.949 910.053 386.333 910.053C432.521 910.053 486.204 874.8009999999999 486.204 829.329V734.3910000000001C446.464 737.409 334.438 755.314 334.438 861.186zM509.394 90.893C509.394 84.953 505.184 80.1270000000001 500 80.1270000000001C494.808 80.1270000000001 490.606 84.9530000000001 490.606 90.893V521.533C490.606 527.484 494.808 532.299 500 532.299C505.183 532.299 509.394 527.484 509.394 521.533V90.893zM838.17 553.8299999999999H161.83C156.638 553.8299999999999 152.436 558.656 152.436 564.596C152.436 570.547 156.637 575.3620000000001 161.83 575.3620000000001H838.17C843.353 575.3620000000001 847.564 570.547 847.564 564.596C847.564 558.656 843.354 553.8299999999999 838.17 553.8299999999999z" />
    <glyph glyph-name="car"
      unicode="&#xE004;"
      horiz-adv-x="1000" d=" M895.15 533.7239999999999L831.117 537.495C832.769 532.1759999999999 834.011 528.181 834.697 525.8910000000001C850.535 521.3810000000001 856.109 505.03 856.109 488.142V246.42C856.109 239.64 860.173 241.149 856.9350000000001 235.644C860.171 230.206 862.066 223.8730000000001 862.066 217.088V176.156C862.066 155.602 845.025 138.973 823.9580000000001 138.973H717.236C696.203 138.973 679.16 155.637 679.16 176.156V217.09H320.836V176.158C320.836 155.6030000000001 303.778 138.976 282.745 138.976H176.024C154.989 138.976 137.914 155.638 137.914 176.158V217.09C137.914 223.8720000000001 139.824 230.206 143.06 235.6470000000001C139.824 241.1230000000001 143.869 239.606 143.869 246.4220000000001V488.178C143.869 505.065 149.447 521.3820000000001 165.198 525.927C165.937 528.337 167.281 532.7429999999999 169.156 538.6980000000001L104.779 534.877C81.474 533.518 61.713 549.1980000000001 61.713 569.992V607.62C61.713 628.412 81.474 644.095 104.779 642.716L176.799 638.465C296.206 631.4090000000001 88.702 574.5350000000001 252.244 784.897C269.028 806.465 284.639 825.226 339.91 830.839C454.548 842.457 594.611 836.158 660.0909999999999 829.565C715.3779999999999 823.988 733.2789999999999 803.505 747.7389999999999 784.932C912.504 573.3820000000001 702.983 630.203 823.1999999999999 637.294L895.2209999999999 641.563C918.4919999999998 642.942 938.2859999999998 627.245 938.2859999999998 606.485V568.8389999999999C938.251 548.027 918.492 532.347 895.15 533.7239999999999zM151.633 609.271L128.826 609.789C115.71 610.116 104.778 600.733 104.778 588.8240000000001C104.778 576.912 115.71 567.529 128.826 567.8050000000001L151.633 568.338C163.716 568.614 173.321 577.788 173.321 588.8230000000001C173.322 599.856 163.716 608.979 151.633 609.271zM176.024 202.2530000000001V187.3820000000001C176.024 179.153 182.823 172.5080000000001 191.291 172.5080000000001H267.512C275.929 172.5080000000001 282.779 179.154 282.779 187.3820000000001V202.2530000000001C282.779 210.447 275.929 217.125 267.512 217.125H191.291C182.824 217.125 176.024 210.448 176.024 202.2530000000001zM736.24 710.52C702.7090000000001 784.1569999999999 651.482 783.588 609.517 783.588S392.081 783.588 362.9740000000001 783.588C333.85 783.588 289.9210000000001 746.218 280.7980000000001 729.901C261.021 694.5799999999999 183.563 571.61 253.414 541.9C268.527 534.002 712.968 543.3119999999999 746.498 541.9C806.398 567.238 745.845 691.515 736.24 710.52zM801.306 407.5700000000001C801.306 424.0250000000001 790.7710000000001 488.177 773.902 488.177H226.045C209.193 488.177 198.658 424.0600000000001 198.658 407.5700000000001V300.1600000000001C198.658 283.7060000000002 209.193 273.2710000000001 226.045 273.2710000000001H280.834H719.13H773.901C790.77 273.2710000000001 801.305 283.706 801.305 300.1600000000001V407.5700000000001L801.306 407.5700000000001zM823.923 202.2530000000001C823.923 210.447 817.142 217.125 808.673 217.125H732.451C724.015 217.125 717.168 210.447 717.168 202.2530000000001V187.3820000000001C717.168 179.153 724.019 172.5080000000001 732.451 172.5080000000001H808.673C817.07 172.5080000000001 823.923 179.154 823.923 187.3820000000001V202.2530000000001zM871.119 608.635L848.3330000000001 608.102C836.214 607.827 826.6440000000001 598.65 826.6440000000001 587.6189999999999C826.6440000000001 576.586 836.2140000000002 567.463 848.3330000000001 567.169L871.1190000000001 566.6189999999999C884.2710000000002 566.2919999999999 895.1500000000001 575.707 895.1500000000001 587.6189999999999S884.271 608.944 871.119 608.635zM715.584 314.448C703.3589999999999 302.81 685.015 298.199 670.2769999999999 308.01C655.545 317.786 651.584 342.85 662.1869999999999 351.112C680.9159999999999 365.813 755.8589999999999 391.9749999999999 755.8589999999999 391.9749999999999S771.4229999999999 391.94 765.1579999999999 380.0629999999999C765.158 380.062 727.838 326.083 715.584 314.448zM278.925 313.826C266.8400000000001 325.636 229.902 380.3390000000001 229.902 380.3390000000001C223.689 392.3540000000001 239.128 392.4220000000001 239.128 392.4220000000001S313.264 365.879 331.769 351.0080000000001C342.251 342.572 338.359 317.201 323.764 307.2510000000001C309.1840000000001 297.337 291.024 302.02 278.925 313.826z" />
    <glyph glyph-name="card"
      unicode="&#xE005;"
      horiz-adv-x="1000" d=" M826.319 392.377H864.726V431.5279999999999H826.319V392.377zM903.093 490.275H826.319C783.915 490.275 749.545 455.1999999999999 749.545 411.953C749.545 368.706 783.915 333.651 826.319 333.651H903.093V196.602C903.093 164.172 877.3449999999999 137.875 845.5219999999999 137.875H154.477C122.674 137.875 96.906 164.172 96.906 196.602V696.9069999999999C108.213 690.1859999999999 121.224 686.0319999999999 135.293 686.0319999999999H864.725C885.927 686.0319999999999 903.093 668.514 903.093 646.881V490.275zM903.093 372.802H826.319C805.137 372.802 787.932 390.3400000000001 787.932 411.953C787.932 433.586 805.1370000000001 451.124 826.319 451.124H903.093V372.802zM135.293 803.505H416.504L205.738 725.614C205.464 725.535 205.307 725.3199999999999 205.0320000000001 725.202H201.4270000000001H135.2930000000001C114.0910000000001 725.202 96.9060000000001 742.74 96.9060000000001 764.3530000000001C96.906 785.986 114.091 803.505 135.293 803.505zM527.688 803.505H527.903L633.7370000000001 842.656H633.6980000000001L673.065 857.216L693.4630000000001 799.9780000000001L720.1120000000001 725.203H315.805L527.688 803.505zM787.932 803.505C809.154 803.505 826.319 785.986 826.319 764.354V725.203H760.519L732.596 803.506H787.932zM864.726 725.202V764.3530000000001C864.726 807.6 830.317 842.655 787.933 842.655H718.644L702.2620000000001 888.567C698.715 898.6 687.801 903.773 677.9440000000001 900.129L522.5150000000001 842.6560000000001H135.313C135.293 842.6560000000001 135.293 842.6560000000001 135.293 842.6560000000001C92.869 842.6560000000001 58.5 807.6 58.5 764.354V196.6020000000001C58.5 142.5580000000001 101.472 98.7040000000001 154.477 98.7040000000001H845.5219999999999C898.5269999999999 98.7040000000001 941.4999999999998 142.5580000000001 941.4999999999998 196.6020000000001V646.88C941.5 690.146 907.13 725.202 864.726 725.202z" />
    <glyph glyph-name="checked"
      unicode="&#xE006;"
      horiz-adv-x="1000" d=" M500.033 941.5C256.578 941.5 58.5 743.422 58.5 499.967S256.578 58.5 500.033 58.5S941.5 256.512 941.5 499.967S743.488 941.5 500.033 941.5zM803.504 588.992L467.83 264.163C465.302 261.701 464.836 262.433 465.434 265.0950000000001C448.6 252.8530000000001 428.307 250.99 417.262 261.635L196.695 474.351C184.12 486.528 188.245 510.414 206.077 527.779L227.501 548.672C245.333 565.971 269.951 570.163 282.593 557.9870000000001L441.149 405.087C441.88 406.019 442.414 407.017 443.278 407.881L717.606 672.6279999999999C730.248 684.871 754.867 680.679 772.698 663.3789999999999L794.122 642.42C811.954 625.121 816.08 601.168 803.504 588.992z" />
    <glyph glyph-name="checkmark"
      unicode="&#xE007;"
      horiz-adv-x="1000" d=" M908.487 662.581L430.266 174.817C386.2480000000001 129.923 314.872 129.923 270.8540000000001 174.817L91.523 357.7340000000001C47.492 402.6280000000001 47.492 475.4190000000001 91.523 520.326C135.54 565.22 206.904 565.22 250.921 520.326L350.56 418.706L749.076 825.173C793.0930000000001 870.0799999999999 864.47 870.0799999999999 908.487 825.173C952.504 780.279 952.504 707.4870000000001 908.487 662.581zM868.634 784.525C846.625 806.9780000000001 810.937 806.9780000000001 788.928 784.525L410.3330000000001 398.382L410.3330000000001 398.382L405.0900000000001 393.031L390.413 378.0569999999999L390.413 378.0569999999999L350.56 337.41L339.657 348.529L290.774 398.382L290.774 398.382L211.081 479.678C189.059 502.118 153.384 502.118 131.375 479.678C109.353 457.225 109.353 420.836 131.375 398.382L211.081 317.0859999999999L211.081 317.0859999999999L290.774 235.7899999999999H290.787L310.706 215.4659999999999C332.715 193.0259999999999 368.403 193.0259999999999 390.412 215.4659999999999C397.825 223.0399999999999 401.814 232.3529999999999 404.226 242.0159999999999L410.331 235.7889999999999L490.037 317.0849999999999L490.037 317.0849999999999L868.633 703.2279999999998C890.643 725.682 890.643 762.085 868.634 784.525z" />
    <glyph glyph-name="clipboard"
      unicode="&#xE008;"
      horiz-adv-x="1000" d=" M775.938 831.125H693.1569999999999V886.313H618.837C594.935 919.161 550.943 941.5 500 941.5C449.07 941.5 405.065 919.161 381.164 886.312H306.844V831.124H224.063C163.109 831.124 113.688 781.703 113.688 720.749V168.874C113.688 107.9060000000001 163.109 58.499 224.063 58.499H775.938C836.8919999999999 58.499 886.313 107.9060000000001 886.313 168.874V720.75C886.313 781.704 836.892 831.125 775.938 831.125zM362.031 831.125H423.349C423.349 861.602 457.666 886.313 500 886.313S576.651 861.6030000000001 576.651 831.125H637.9689999999999V720.75H362.031V831.125zM831.125 168.875C831.125 138.398 806.415 113.687 775.937 113.687H224.063C193.586 113.687 168.875 138.3970000000001 168.875 168.875V720.75C168.875 751.227 193.585 775.938 224.063 775.938H306.844V665.563H693.1569999999999V775.937H775.9379999999999C806.4149999999998 775.937 831.1259999999999 751.227 831.1259999999999 720.749V168.875z M693.897 608.489C680.6930000000001 616.115 663.8240000000001 611.588 656.1980000000001 598.384L479.7360000000001 292.724L381.0020000000001 383.791C370.5730000000002 394.907 353.1120000000002 395.473 341.9960000000001 385.058C330.8670000000001 374.6430000000001 330.3010000000001 357.1810000000001 340.7160000000001 346.052L466.8820000000001 229.7080000000001C477.2970000000001 218.5790000000001 494.7590000000001 218.013 505.8880000000001 228.4280000000001C509.2430000000002 231.5810000000002 511.3180000000002 235.4480000000001 512.7330000000002 239.5310000000001L703.9890000000001 570.791C711.615 583.994 707.088 600.863 693.897 608.489z" />
    <glyph glyph-name="code"
      unicode="&#xE009;"
      horiz-adv-x="1000" d=" M818.253 396.977C759.696 396.977 712.162 443.088 712.162 499.992C712.162 556.895 759.697 603.025 818.253 603.025C876.845 603.025 924.344 556.895 924.344 499.992C924.344 443.088 876.88 396.977 818.253 396.977zM818.253 551.508C788.957 551.508 765.207 528.434 765.207 499.991C765.207 471.5309999999999 788.956 448.457 818.253 448.457C847.5490000000001 448.457 871.298 471.53 871.298 499.991C871.298 528.434 847.549 551.508 818.253 551.508zM818.253 654.54C759.696 654.54 712.162 700.6700000000001 712.162 757.5730000000001C712.162 814.476 759.696 860.606 818.253 860.606C876.845 860.606 924.344 814.4760000000001 924.344 757.5730000000001C924.344 700.6700000000001 876.88 654.54 818.253 654.54zM818.253 809.09C788.957 809.09 765.207 785.998 765.207 757.573C765.207 729.1310000000001 788.956 706.057 818.253 706.057C847.5490000000001 706.057 871.298 729.1310000000001 871.298 757.573C871.298 785.998 847.549 809.09 818.253 809.09zM500 139.395C441.426 139.395 393.91 185.506 393.91 242.428C393.91 299.348 441.427 345.424 500 345.424S606.073 299.348 606.073 242.428C606.072 185.506 558.609 139.395 500 139.395zM500 293.943C470.687 293.943 446.955 270.8350000000001 446.955 242.427C446.955 213.948 470.686 190.909 500 190.909S553.028 213.947 553.028 242.427C553.027 270.834 529.313 293.943 500 293.943zM500 396.977C441.426 396.977 393.91 443.088 393.91 499.992C393.91 556.895 441.426 603.025 500 603.025C558.575 603.025 606.073 556.895 606.073 499.992C606.072 443.088 558.609 396.977 500 396.977zM500 551.508C470.687 551.508 446.955 528.434 446.955 499.991C446.955 471.5309999999999 470.686 448.457 500 448.457S553.028 471.53 553.028 499.991C553.027 528.434 529.313 551.508 500 551.508zM500 654.54C441.426 654.54 393.91 700.6700000000001 393.91 757.5730000000001C393.91 814.476 441.427 860.606 500 860.606S606.073 814.4760000000001 606.073 757.5730000000001C606.072 700.6700000000001 558.609 654.54 500 654.54zM500 809.09C470.687 809.09 446.955 785.998 446.955 757.573C446.955 729.1310000000001 470.686 706.057 500 706.057S553.028 729.1310000000001 553.028 757.573C553.027 785.998 529.313 809.09 500 809.09zM181.747 139.395C123.155 139.395 75.657 185.506 75.657 242.428C75.657 299.348 123.156 345.424 181.747 345.424C240.32 345.424 287.819 299.348 287.819 242.428C287.818 185.506 240.355 139.395 181.747 139.395zM181.747 293.943C152.433 293.943 128.702 270.8350000000001 128.702 242.427C128.702 213.948 152.433 190.909 181.747 190.909C211.042 190.909 234.774 213.947 234.774 242.427C234.773 270.834 211.042 293.943 181.747 293.943zM181.747 396.977C123.155 396.977 75.657 443.088 75.657 499.992C75.657 556.895 123.156 603.025 181.747 603.025C240.32 603.025 287.819 556.895 287.819 499.992C287.818 443.088 240.355 396.977 181.747 396.977zM181.747 551.508C152.433 551.508 128.702 528.434 128.702 499.991C128.702 471.5309999999999 152.433 448.457 181.747 448.457C211.042 448.457 234.774 471.53 234.774 499.991C234.773 528.434 211.042 551.508 181.747 551.508zM181.747 654.54C123.155 654.54 75.657 700.6700000000001 75.657 757.5730000000001C75.657 814.476 123.156 860.606 181.747 860.606C240.32 860.606 287.819 814.4760000000001 287.819 757.5730000000001C287.818 700.6700000000001 240.355 654.54 181.747 654.54zM181.747 809.09C152.433 809.09 128.702 785.998 128.702 757.573C128.702 729.1310000000001 152.433 706.057 181.747 706.057C211.042 706.057 234.774 729.095 234.774 757.573C234.773 786.034 211.042 809.09 181.747 809.09zM818.253 345.424C876.845 345.424 924.344 299.348 924.344 242.428C924.344 185.506 876.845 139.395 818.253 139.395C759.696 139.395 712.162 185.506 712.162 242.428C712.162 299.348 759.697 345.424 818.253 345.424zM818.253 190.911C847.5490000000001 190.911 871.298 213.949 871.298 242.428C871.298 270.8350000000001 847.549 293.9460000000001 818.253 293.9460000000001S765.207 270.837 765.207 242.428C765.207 213.949 788.957 190.911 818.253 190.911z" />
    <glyph glyph-name="correct"
      unicode="&#xE00A;"
      horiz-adv-x="1000" d=" M500 941.5C256.0420000000001 941.5 58.267 743.844 58.267 500.006C58.267 256.1910000000001 256.042 58.5 500 58.5C743.97 58.5 941.733 256.1910000000001 941.733 500.006C941.733 743.844 743.97 941.5 500 941.5zM704.589 547.265L483.3460000000001 326.105C483.3460000000001 326.105 460.3450000000001 301.4890000000001 440.0800000000001 325.029L295.506 469.544C295.506 469.544 274.142 488.147 288.93 506.211L337.121 554.367C337.121 554.367 351.36 566.418 368.886 546.716L434.604 481.034C434.604 481.034 460.344 449.843 486.083 481.034L626.832 631.024C626.832 631.024 642.159 646.327 661.334 629.3620000000001L708.976 581.744C708.977 581.744 727.053 567.529 704.589 547.265z" />
    <glyph glyph-name="coupon"
      unicode="&#xE00B;"
      horiz-adv-x="1000" d=" M491.654 859.5360000000001H858.1859999999999C904.1159999999998 859.5360000000001 941.4999999999998 823.2429999999999 941.4999999999998 777.386V294.9740000000001C941.4999999999998 249.1170000000001 904.1159999999998 211.8050000000001 858.1859999999999 211.8050000000001H141.778C95.848 211.8050000000001 58.5 249.1170000000001 58.5 294.9740000000001V776.386C58.5 816.552 87.156 850.136 125.122 857.864M173.943 859.5360000000001H442.851M895.097 765.458C895.097 791.642 873.823 811.952 847.6759999999999 811.952L491.6539999999999 810.697L167.8159999999999 811.952C141.6499999999999 811.952 120.3769999999999 790.641 120.3769999999999 764.458V306.23C120.3769999999999 280.0460000000001 141.6509999999999 258.7180000000001 167.8159999999999 258.7180000000001H847.6759999999999C873.823 258.7180000000001 895.097 280.0470000000001 895.097 306.23V765.458zM808.219 344.8680000000001H334.88C325.661 344.8680000000001 318.225 352.341 318.225 361.523C318.225 370.7240000000001 325.6620000000001 378.1610000000001 334.88 378.1610000000001H808.2180000000001C817.4190000000001 378.1610000000001 824.874 370.7240000000001 824.874 361.523C824.875 352.341 817.419 344.8680000000001 808.219 344.8680000000001zM808.219 448.656H334.88C325.661 448.656 318.225 456.093 318.225 465.2929999999999C318.225 474.4939999999999 325.6620000000001 481.9309999999999 334.88 481.9309999999999H808.2180000000001C817.4190000000001 481.9309999999999 824.874 474.4939999999999 824.874 465.2929999999999C824.875 456.093 817.419 448.656 808.219 448.656zM808.219 552.463H418.177C408.9580000000001 552.463 401.5030000000001 559.8810000000001 401.5030000000001 569.0640000000001C401.5030000000001 578.2650000000001 408.9580000000001 585.702 418.177 585.702H808.219C817.4200000000001 585.702 824.875 578.265 824.875 569.0640000000001C824.875 559.881 817.419 552.463 808.219 552.463z" />
    <glyph glyph-name="coupon2"
      unicode="&#xE00C;"
      horiz-adv-x="1000" d=" M941.5 328.021L853.1949999999999 257.197L941.5 192.41V135.74H176.237C111.215 135.74 58.501 190.105 58.501 257.16V742.8589999999999C58.501 809.915 111.216 864.26 176.237 864.26H941.5V807.608L853.1949999999999 742.821L941.5 671.9970000000001L941.491 621.419L853.195 500L941.5 386.697V328.021zM176.237 196.459C143.722 196.459 117.373 223.641 117.373 257.16V742.8589999999999C117.373 776.396 143.721 803.578 176.237 803.578H884.352L794.332 742.8209999999999L912.059 651.77L794.332 500L915.537 360.04L794.332 257.197L883.424 196.4590000000001H176.237zM204.037 288.8780000000001H641.586C658.842 288.8780000000001 672.836 302.394 672.836 319.0780000000001C672.836 335.7440000000002 658.842 349.2790000000001 641.586 349.2790000000001H204.037C186.772 349.2790000000001 172.787 335.7440000000002 172.787 319.0780000000001C172.787 302.395 186.772 288.8780000000001 204.037 288.8780000000001zM204.037 470.793H334.4460000000001C351.702 470.793 365.6960000000001 484.2910000000001 365.6960000000001 500.993C365.6960000000001 517.659 351.702 531.194 334.4460000000001 531.194H204.037C186.772 531.194 172.787 517.659 172.787 500.993C172.787 484.2910000000001 186.772 470.793 204.037 470.793z" />
    <glyph glyph-name="cross"
      unicode="&#xE00D;"
      horiz-adv-x="1000" d=" M700.038 500.002L900.076 299.964C955.311 244.7299999999999 955.311 155.161 900.076 99.9259999999999C844.8240000000001 44.6919999999999 755.273 44.6919999999999 700.038 99.9259999999999L500 299.9640000000001L299.962 99.9260000000001C244.727 44.692 155.176 44.692 99.924 99.9260000000001C44.689 155.1610000000001 44.689 244.73 99.924 299.9640000000001L299.962 500.0020000000001L99.924 700.031C44.689 755.275 44.689 844.826 99.924 900.061C155.176 955.313 244.727 955.313 299.962 900.061L500 700.04L700.038 900.061C755.273 955.313 844.8240000000001 955.313 900.076 900.061C955.311 844.826 955.311 755.275 900.076 700.031L700.038 500.002zM750.048 149.936C777.656 122.3100000000001 822.441 122.3100000000001 850.067 149.936C877.676 177.562 877.676 222.3290000000001 850.067 249.9550000000001L600.019 500.002L850.066 750.0409999999999C877.6750000000001 777.658 877.6750000000001 822.434 850.066 850.0509999999999C822.441 877.668 777.6560000000001 877.668 750.047 850.0509999999999L500 600.0129999999999L249.952 850.052C222.343 877.669 177.559 877.669 149.933 850.052C122.324 822.435 122.324 777.659 149.933 750.0419999999999L399.981 500.003L149.933 249.9550000000001C122.324 222.3290000000001 122.324 177.562 149.933 149.936C177.559 122.3100000000001 222.343 122.3100000000001 249.952 149.936L500 399.983L750.048 149.936z" />
    <glyph glyph-name="edit"
      unicode="&#xE00E;"
      horiz-adv-x="1000" d=" M823.955 160.055H170.296C110.101 160.055 61.373 207.819 61.373 266.842V666.394C61.373 725.367 110.841 778.261 171.002 778.261H609.6220000000001V724.54H171.0020000000001C140.9220000000001 724.54 115.8170000000001 695.923 115.8170000000001 666.428V305.033C115.8170000000001 275.52 140.1810000000001 213.466 170.2960000000001 213.466H823.955C854.018 213.466 883.77 237.987 883.77 267.4640000000001V574.7940000000001H938.627V267.4640000000001C938.629 208.473 884.082 160.055 823.955 160.055zM599.91 353.141C592.437 345.8399999999999 583.105 342.156 573.463 340.33L349.711 231.992C324.538 220.558 304.3760000000001 242.668 313.639 267.324L424.2320000000001 486.444C426.0920000000001 495.8969999999999 429.8280000000001 505.074 437.3010000000001 512.375L756.8040000000001 825.3009999999999C776.7780000000001 844.8249999999999 809.0790000000001 844.8249999999999 829.0520000000001 825.3009999999999L919.4140000000002 736.8159999999999C939.352 717.29 939.352 685.5909999999999 919.4140000000002 666.049L599.91 353.141zM362.59 297.629C356.736 286.092 368.014 274.246 380.635 279.929L518.778 361.8879999999999L446.202 432.9649999999999L362.59 297.629zM491.504 459.3440000000001L545.707 406.2410000000001C555.693 396.4960000000001 529.936 421.7380000000001 563.8199999999999 388.5410000000001L774.8829999999999 595.316L683.9029999999999 683.147L473.459 477.078C483.05 467.678 481.535 469.125 491.504 459.3440000000001zM865.211 719.15L811.0070000000001 772.217C801.0210000000001 781.997 784.835 781.997 774.883 772.217L721.988 720.424L811.0070000000001 630.682L865.211 683.749C875.163 693.547 875.163 709.389 865.211 719.15z" />
    <glyph glyph-name="edit2"
      unicode="&#xE00F;"
      horiz-adv-x="1000" d=" M825.981 58.5H168.248C107.708 58.5 58.625 107.611 58.625 168.1900000000001V826.361C58.625 886.948 108.422 941.251 168.969 941.251H610.344V886.079H168.969C138.696 886.079 113.433 856.654 113.433 826.361V168.1900000000001C113.433 137.904 137.975 113.3420000000001 168.248 113.3420000000001H825.981C856.254 113.3420000000001 886.204 138.5500000000001 886.204 168.8430000000001V610.213H941.376V168.8440000000001C941.375 108.264 886.527 58.5 825.981 58.5zM498.384 324.298C490.37 316.2770000000001 480.335 312.27 469.99 310.249L230 191.5410000000001C202.993 179 181.361 203.226 191.308 230.259L309.936 470.404C311.95 480.7619999999999 315.964 490.797 323.972 498.825L750.308 925.437C771.711 946.854 806.423 946.854 827.826 925.437L924.714 828.482C946.124 807.065 946.124 772.327 924.714 750.91L498.384 324.298zM243.8 263.428C237.537 250.78 249.639 237.795 263.149 244.0650000000001L411.343 333.8340000000001L333.508 411.7160000000001L243.8 263.428zM382.113 440.649L440.249 382.473C450.95 371.7579999999999 423.29 399.431 459.632 363.077L769.684 673.338L672.103 769.606L362.737 460.032C373.028 449.741 371.412 451.357 382.113 440.649zM866.579 809.086L808.444 867.262C797.742 877.97 780.3929999999999 877.97 769.692 867.262L712.944 810.4739999999999L808.444 712.131L866.579 770.307C877.28 781.015 877.28 798.3779999999999 866.579 809.086z" />
    <glyph glyph-name="file-text"
      unicode="&#xE010;"
      horiz-adv-x="1000" d=" M748.304 58.5H251.696C190.752 58.5 141.339 107.899 141.339 168.857V830.9929999999999C141.339 891.944 190.752 941.357 251.696 941.357H582.768C619.7 941.936 634.397 940.562 637.946 940.562V941.357L858.6610000000001 720.642C858.6610000000001 680.121 858.6610000000001 674.085 858.6610000000001 665.4639999999999V168.857C858.661 107.899 809.255 58.5 748.304 58.5zM637.946 886.179C637.946 820.479 637.946 775.822 637.946 775.822C637.946 745.35 662.653 720.643 693.125 720.643H803.482L637.946 886.179zM803.482 665.4639999999999C739.237 665.4639999999999 693.125 665.4639999999999 693.125 665.4639999999999C632.181 665.4639999999999 582.768 714.863 582.768 775.821C582.768 775.821 581.481 820.101 581.9870000000001 886.178H251.696C221.224 886.178 196.518 861.471 196.518 830.9929999999999V168.857C196.518 138.385 221.224 113.678 251.696 113.678H748.303C778.775 113.678 803.482 138.385 803.482 168.857V665.4639999999999zM665.536 279.2140000000001H334.464C319.228 279.2140000000001 306.875 291.567 306.875 306.8030000000001C306.875 322.0390000000001 319.229 334.3920000000001 334.464 334.3920000000001H665.5350000000001C680.7710000000001 334.3920000000001 693.124 322.0390000000001 693.124 306.8030000000001C693.125 291.567 680.772 279.2140000000001 665.536 279.2140000000001zM665.536 444.75H334.464C319.228 444.75 306.875 457.104 306.875 472.3389999999999S319.229 499.9279999999999 334.464 499.9279999999999H665.5350000000001C680.7710000000001 499.9279999999999 693.124 487.574 693.124 472.3389999999999S680.772 444.75 665.536 444.75z" />
    <glyph glyph-name="file"
      unicode="&#xE011;"
      horiz-adv-x="1000" d=" M851.997 141.043H147.952C102.828 141.043 66.072 176.828 66.072 220.86V683.492C66.072 722.02 82.993 745.196 120.312 752.625V805.774C120.312 834.504 155.552 858.957 185.049 858.957H438.271C467.768 858.957 491.778 835.578 491.778 806.864L499.974 752.5899999999999H852.542C897.666 752.5899999999999 933.928 727.438 933.928 683.457V220.8589999999999C933.859 176.827 897.12 141.043 851.997 141.043zM443.826 806.899L443.86 805.825H174.535C174.535 816.953 163.101 805.825 174.535 805.825V752.659H445.735L443.86 805.825H445.735C457.151 805.775 443.826 817.9929999999999 443.826 806.899zM879.637 646.259C879.637 671.377 878.2049999999999 699.442 852.5419999999999 699.442H499.974H174.535C148.821 699.442 120.312 671.377 120.312 646.259V247.443C120.312 222.291 148.854 194.242 174.535 194.242H825.414C851.111 194.242 879.637 222.291 879.637 247.443V646.259L879.637 646.259zM798.251 247.443H445.734C436.736 247.443 418.623 265.096 418.623 274.026C418.623 282.955 436.771 300.6089999999999 445.734 300.6089999999999H798.251C807.215 300.6089999999999 825.38 282.955 825.38 274.026C825.38 265.097 807.283 247.443 798.251 247.443zM798.251 353.775H445.734C436.736 353.775 418.623 371.429 418.623 380.3589999999999S436.771 406.9419999999999 445.734 406.9419999999999H798.251C807.215 406.9419999999999 825.38 389.2889999999999 825.38 380.3589999999999C825.414 371.43 807.283 353.775 798.251 353.775zM798.251 460.143H635.549C626.5849999999999 460.143 609.682 477.6950000000001 609.682 486.623C609.682 495.5690000000001 626.585 513.325 635.549 513.325H798.251C807.215 513.325 825.38 495.672 825.38 486.7420000000001C825.38 477.797 807.283 460.143 798.251 460.143z" />
    <glyph glyph-name="img"
      unicode="&#xE012;"
      horiz-adv-x="1000" d=" M288.709 587.929C229.001 587.929 180.594 636.323 180.594 696.044C180.594 755.752 229 804.146 288.709 804.146C348.4170000000001 804.146 396.824 755.752 396.824 696.044C396.824 636.323 348.417 587.929 288.709 587.929zM288.618 760.965C252.937 760.965 223.997 732.0260000000001 223.997 696.344C223.997 660.65 252.936 631.723 288.618 631.723S353.239 660.649 353.239 696.344C353.238 732.025 324.299 760.965 288.618 760.965zM768.804 203.197C767.785 203.197 766.831 203.458 765.812 203.4980000000001L765.629 203.1840000000001H212.67L212.095 204.2950000000001C211.938 204.2950000000001 211.782 204.2560000000001 211.612 204.2560000000001C171.828 204.2560000000001 139.584 236.5010000000001 139.584 276.2840000000001C139.584 305.9810000000001 157.575 331.4580000000001 183.235 342.4720000000001L360.9740000000001 522.0540000000001L361.7050000000001 522.028C366.3700000000001 527.7250000000001 373.1630000000001 531.5790000000001 381.1070000000001 531.5790000000001C389.4820000000001 531.5790000000001 396.55 527.267 401.175 521.022L402.2850000000001 520.9960000000001L418.0420000000001 505.6320000000001C423.4120000000001 497.2180000000001 432.3610000000001 491.325 443.0750000000001 491.325C454.2590000000001 491.325 463.6270000000001 497.688 468.8530000000001 506.742C469.0360000000001 506.572 469.2970000000001 506.494 469.4930000000001 506.324L531.527 572.8910000000001H533.97C543.2850000000001 581.37 555.541 586.675 569.128 586.675C587.537 586.675 603.6600000000001 577.137 613.014 562.792L815.421 346.7190000000001C823.547 340.7870000000001 830.485 333.4060000000001 835.8810000000001 324.874L838.729 321.8430000000001L838.089 320.7980000000001C844.373 309.4310000000002 848.254 296.5490000000001 848.254 282.6480000000002C848.253 238.761 812.69 203.197 768.804 203.197zM776.63 312.161L597.205 519.924H595.808C590.085 525.059 582.704 528.403 574.42 528.403C566.137 528.403 558.7679999999999 525.058 553.045 519.924H551.6469999999999L447.5830000000001 406.414C446.903 392.9700000000001 436.0200000000001 382.217 422.4190000000001 382.217C409.1180000000001 382.217 398.5490000000001 392.526 397.4120000000001 405.526H395.9350000000001V452.13H393.1390000000001C389.4810000000001 458.976 382.5040000000001 463.784 374.2070000000001 463.784C365.3360000000001 463.784 357.7450000000001 458.427 354.3870000000001 450.797L204.19 294.3010000000001L205.666 289.885C201.747 283.679 198.898 276.754 198.898 268.876C198.898 251.604 209.873 237.1670000000001 225.146 231.444L225.381 230.738H228.647C232.07 229.784 235.428 228.6089999999999 239.151 228.6089999999999S246.233 229.785 249.655 230.738H759.277L759.839 233.0899999999999C779.4760000000001 238.368 794.2270000000001 255.5099999999999 794.2270000000001 276.819C794.229 291.322 787.108 303.721 776.63 312.161zM867.917 58.5H132.083C91.45 58.5 58.5 91.451 58.5 132.083V720.75H107.56V181.143C107.56 140.4970000000001 140.498 107.5600000000001 181.143 107.5600000000001H818.856C859.502 107.5600000000001 892.439 140.4980000000001 892.439 181.143V818.857C892.439 859.5029999999999 859.501 892.44 818.856 892.44H181.144C140.498 892.44 107.561 859.502 107.561 818.857H58.5V867.917C58.5 908.563 91.451 941.5 132.083 941.5H867.9159999999999C908.549 941.5 941.499 908.562 941.499 867.917V132.0840000000001C941.5 91.451 908.55 58.5 867.917 58.5z" />
    <glyph glyph-name="inquiry"
      unicode="&#xE013;"
      horiz-adv-x="1000" d=" M498.781 942.218C254.947 942.218 57.281 744.5509999999999 57.281 500.718C57.281 256.884 254.948 59.2180000000001 498.781 59.2180000000001S940.281 256.884 940.281 500.7180000000001C940.281 744.5509999999999 742.615 942.218 498.781 942.218zM498.78 92.7380000000001C273.46 92.7380000000001 90.801 275.3970000000001 90.801 500.717C90.801 726.038 273.459 908.696 498.78 908.696S906.76 726.039 906.76 500.718C906.76 275.3970000000001 724.101 92.7380000000001 498.78 92.7380000000001z M621.876 435.795C621.134 563.5799999999999 420.717 524.823 420.191 612.842C420.021 643.0899999999999 441.099 670.748 496.828 671.0419999999999C541.399 671.295 567.01 649.1769999999999 583.036 629.6379999999999C587.332 624.364 592.117 622.825 596.8939999999999 622.846C606.4359999999999 622.887 613.8509999999999 630.358 613.7869999999999 639.902C613.7729999999999 643.5999999999999 612.6899999999999 646.7729999999999 610.53 649.963C589.65 680.044 553.976 700.526 509.37 703.477L509.136 743.761C509.0940000000001 751.223 502.7070000000001 757.5219999999999 495.268 757.4939999999999C487.845 757.4459999999999 481.504 751.0419999999999 481.557 743.6199999999999L481.787 703.3309999999999C414.4090000000001 697.64 383.867 658.2529999999999 384.11 612.646C384.8570000000001 486.962 585.201 534.7189999999999 585.775 435.604C586.044 388.916 553.274 365.416 494.883 365.0949999999999C448.172 364.8279999999999 417.265 387.4509999999999 400.119 414.949C396.902 420.2299999999999 391.557 423.3789999999999 385.219 423.349C375.635 423.291 368.268 415.839 368.328 406.2789999999999C368.349 403.0929999999999 368.883 400.969 371.032 396.743C388.205 364.512 428.715 335.564 483.925 332.685L484.157 292.8989999999999C484.185 285.5009999999999 490.612 279.1559999999999 498.03 279.1879999999999C505.4709999999999 279.2369999999999 511.791 285.6379999999999 511.741 293.0599999999999L511.528 332.8289999999999C582.618 337.9880000000001 622.24 373.7430000000001 621.876 435.795z" />
    <glyph glyph-name="inquiryo"
      unicode="&#xE014;"
      horiz-adv-x="1000" d=" M941.398 505.625C936.24 748.7719999999999 734.033 942.429 490.64 937.324C247.259 932.234 53.447 730.2660000000001 58.601 487.125C63.773 243.999 266 50.332 509.372 55.4210000000001C752.761 60.525 946.578 262.497 941.398 505.625zM514.131 329.3830000000001L514.962 289.615C515.124 282.2000000000001 508.904 275.699 501.462 275.533C500.533 275.514 499.624 275.596 498.732 275.765C492.51 276.961 487.4949999999999 282.549 487.366 289.03L486.515 328.81C481.34 329.002 476.289 329.419 471.374 330.056C423.795 336.176 388.652 362.1479999999999 372.637 391.1209999999999C370.423 395.3169999999999 369.856 397.4289999999999 369.785 400.6139999999999C369.577 410.176 376.831 417.7409999999999 386.413 417.9469999999999C387.209 417.9609999999999 387.989 417.926 388.754 417.844C394.081 417.271 398.57 414.3499999999999 401.459 409.7739999999999C416.83 385.9479999999999 442.677 366.0179999999999 480.1849999999999 362.0649999999999C485.542 361.5019999999999 491.1369999999999 361.2649999999999 496.973 361.3889999999998C555.3599999999999 362.6069999999998 587.762 386.6099999999998 586.78 433.2949999999999C584.672 532.4009999999998 385.073 481.5459999999998 382.384 607.2149999999998C381.437 652.8199999999998 411.372 692.6739999999998 478.655 699.4069999999998L477.805 739.6909999999998C477.638 747.1109999999998 483.875 753.6119999999999 491.298 753.7749999999999C492.23 753.7929999999998 493.146 753.7099999999998 494.035 753.5409999999998C500.2670000000001 752.3499999999998 505.257 746.7889999999998 505.398 740.2539999999998L506.252 699.9699999999998C509.041 699.8299999999998 511.797 699.6179999999998 514.517 699.3419999999999C555.3420000000001 695.1829999999998 588.221 675.9219999999998 608.234 648.0249999999999C610.441 644.8699999999999 611.576 641.7119999999998 611.649 638.0169999999998C611.863 628.4749999999999 604.564 620.8899999999999 595.022 620.7019999999998C594.421 620.6899999999998 593.8180000000001 620.7039999999998 593.216 620.7459999999999C589.033 621.0369999999998 584.876 622.7239999999998 581.045 627.2809999999998C566.76 644.1579999999999 545.106 662.8959999999998 510.066 666.6889999999999C505.064 667.2289999999998 499.785 667.4649999999999 494.215 667.3479999999998C438.495 666.1929999999999 417.844 638.2069999999999 418.486 607.9629999999999C420.35 519.9619999999999 620.182 561.8049999999998 622.898 434.0409999999999C624.21 372.009 585.141 335.64 514.131 329.3830000000001z" />
    <glyph glyph-name="list"
      unicode="&#xE015;"
      horiz-adv-x="1000" d=" M737.549 941.5H262.433C196.85 941.5 143.681 888.784 143.681 823.764V58.5H199.101L262.469 146.802L331.753 58.5H381.239L499.991 146.802L610.831 58.5H668.2470000000001L737.513 146.802L800.9000000000001 58.5H856.32V823.764C856.319 888.784 803.15 941.5 737.549 941.5zM796.944 116.5700000000001L737.511 205.6700000000001L636.926 84.467L499.991 205.669L351.551 87.933L262.469 205.669L203.057 115.644V823.764C203.057 856.265 229.642 882.6320000000001 262.433 882.6320000000001H737.549C770.341 882.6320000000001 796.9449999999999 856.265 796.9449999999999 823.764L796.944 116.5700000000001L796.944 116.5700000000001z M707.824 588.983H292.156C275.769 588.983 262.468 575.808 262.468 559.567C262.468 543.29 275.7700000000001 530.115 292.156 530.115H707.825C724.23 530.115 737.513 543.289 737.5120000000001 559.567C737.512 575.809 724.229 588.983 707.824 588.983z M707.824 411.708H292.156C275.769 411.708 262.468 398.552 262.468 382.2919999999999S275.7700000000001 352.858 292.156 352.858H707.825C724.23 352.858 737.5120000000001 366.0329999999999 737.5120000000001 382.2919999999999S724.229 411.708 707.824 411.708z M707.824 764.8969999999999H292.156C275.769 764.8969999999999 262.468 751.722 262.468 735.481C262.468 719.204 275.7700000000001 706.029 292.156 706.029H707.825C724.23 706.029 737.513 719.203 737.5120000000001 735.481C737.512 751.722 724.229 764.8969999999999 707.824 764.8969999999999z" />
    <glyph glyph-name="location"
      unicode="&#xE016;"
      horiz-adv-x="875" d=" M532.099 279.353L470.3670000000001 141.978C581.4920000000001 138.572 666.5260000000001 117.9849999999999 667.1210000000001 93.112C668.3570000000001 41.7389999999999 564.4610000000001 4.827 437.8170000000001 4.827C311.1760000000001 4.827 209.7500000000001 40.521 208.5080000000001 93.112C207.9090000000001 118.77 299.4610000000002 139.87 415.8700000000001 142.25C343.9900000000001 137.274 288.7640000000001 109.232 288.7640000000001 93.112C288.7640000000001 75.367 355.5050000000001 61.002 437.8180000000001 61.002S586.8690000000001 75.3679999999999 586.8690000000001 93.112C586.8690000000001 108.4499999999999 536.8420000000001 134.535 470.0740000000001 141.322L444.4900000000001 84.395L417.0800000000001 142.265C416.6800000000001 142.256 416.2680000000001 142.259 415.8710000000001 142.25C416.2590000000001 142.2770000000001 416.6740000000001 142.271 417.0650000000001 142.297L353.38 276.742C223.861 313.636 128.994 432.678 128.994 573.9269999999999C128.994 744.623 267.481 883 438.31 883C609.148 883 747.6320000000001 744.623 747.6320000000001 573.927C747.632 435.911 657.074 319.0510000000001 532.099 279.353zM435.42 792.489C314.079 792.489 215.716 694.204 215.716 572.972C215.716 451.717 314.078 353.434 435.42 353.434C556.758 353.434 655.12 451.716 655.12 572.972C655.121 694.204 556.758 792.489 435.42 792.489zM440.7850000000001 476.282C386.197 476.282 341.9460000000001 520.509 341.9460000000001 575.053C341.9460000000001 629.6 386.197 673.821 440.7850000000001 673.821C495.371 673.821 539.625 629.6 539.625 575.053C539.625 520.509 495.371 476.282 440.7850000000001 476.282z" />
    <glyph glyph-name="message"
      unicode="&#xE017;"
      horiz-adv-x="1000" d=" M500 98.636C466.752 98.636 439.795 125.593 439.795 158.841H399.659C399.659 142.972 403.676 128.1660000000001 410.232 114.824C414.955 105.221 420.913 96.353 428.311 88.7829999999999C446.537 70.141 471.877 58.5 500 58.5C528.123 58.5 553.463 70.141 571.688 88.784C579.086 96.353 585.044 105.222 589.7669999999999 114.8250000000001C596.323 128.1660000000001 600.3399999999999 142.9720000000001 600.3399999999999 158.8420000000001H560.204C560.205 125.593 533.248 98.636 500 98.636z M901.363 219.045C901.363 222.073 900.589 224.871 899.384 227.443C890.937 292.885 853.839 349.214 801.022 383.6620000000001V560.2049999999999C801.022 691.315 717.0450000000001 802.5419999999999 600.066 843.8299999999999C598.616 897.978 554.501 941.5 500 941.5C445.498 941.5 401.384 897.9780000000001 399.933 843.829C282.954 802.5409999999999 198.977 691.3140000000001 198.977 560.204V383.6620000000001C146.161 349.2140000000001 109.062 292.885 100.616 227.443C99.41 224.871 98.637 222.073 98.637 219.045C98.637 217.899 99.107 216.904 99.294 215.8069999999999C98.873 210.2509999999999 98.637 204.6409999999999 98.637 198.9769999999999H118.705H119.714H138.773H245.679H280.397H294.645H299.319H399.66H439.796H560.205H600.341H660.546H705.356H719.604H754.321H861.2270000000001H880.2860000000001H881.2950000000001H901.363C901.363 204.6409999999999 901.128 210.2499999999999 900.7070000000001 215.8069999999999C900.893 216.904 901.363 217.899 901.363 219.045zM775.81 239.1140000000001H740.828H731.304H660.5459999999999H600.3409999999999H560.2049999999999H439.795H399.659H299.318H268.696H259.172H224.19H143.721C152.304 276.649 172.284 309.7440000000001 200.251 334.3100000000001C211.99 344.6280000000001 224.983 353.5550000000001 239.113 360.591V362.7810000000001V404.4500000000001V560.2049999999999C239.113 668.718 305.3930000000001 761.71 399.659 801.033C412.525 806.398 425.989 810.563 439.795 813.831V841.16C439.795 846.1179999999999 440.569 850.861 441.6960000000001 855.471C448.144 881.7760000000001 471.71 901.364 500 901.364C528.289 901.364 551.855 881.7760000000001 558.303 855.471C559.43 850.861 560.204 846.1179999999999 560.204 841.16V813.831C574.011 810.563 587.4739999999999 806.398 600.3399999999999 801.033C694.6059999999999 761.71 760.8849999999999 668.718 760.8849999999999 560.2049999999999V404.451V362.7820000000001V360.592C775.0149999999999 353.5560000000001 788.0089999999999 344.63 799.7469999999998 334.3110000000001C827.7129999999999 309.745 847.6929999999999 276.649 856.2769999999998 239.115H775.81z M587.426 732.631C571.4730000000001 738.824 560.205 740.818 560.205 740.818S568.769 734.199 581.488 722.7729999999999C597.0390000000001 708.8 618.9200000000001 687.497 640.4770000000001 660.545C681.5150000000001 609.257 700.6820000000001 560.204 700.6820000000001 560.204S701.1420000000002 629.865 660.5460000000002 680.6129999999999C637.949 708.8589999999999 608.562 724.434 587.426 732.631z" />
    <glyph glyph-name="mobile"
      unicode="&#xE018;"
      horiz-adv-x="1000" d=" M718.211 57.8730000000001H281.806C217.533 57.8730000000001 165.452 108.985 165.452 172.0160000000001V828.059C165.416 891.052 217.533 942.127 281.806 942.127H718.211C782.485 942.127 834.548 891.052 834.548 828.059V172.016C834.548 108.985 782.414 57.8730000000001 718.211 57.8730000000001zM776.344 828.059C776.344 859.537 750.3130000000001 885.075 718.211 885.075H281.806C249.688 885.075 223.639 859.537 223.639 828.059V799.486H776.344V828.059zM776.344 742.47H223.639V314.639H776.344V742.47zM776.344 257.53H223.639V171.942C223.639 140.4260000000001 249.688 114.9070000000001 281.8060000000001 114.9070000000001H718.211C750.313 114.9070000000001 776.344 140.428 776.344 171.942V257.53L776.344 257.53zM499.963 143.46C475.852 143.46 456.31 162.6550000000001 456.31 186.273C456.31 209.8920000000001 475.852 229.049 499.963 229.049C524.076 229.049 543.597 209.891 543.597 186.273S524.076 143.46 499.963 143.46z" />
    <glyph glyph-name="money"
      unicode="&#xE019;"
      horiz-adv-x="1000" d=" M858.196 824.362H491.667L125.139 822.689C87.164 814.961 58.499 781.3779999999999 58.499 741.212V258.8050000000001C58.499 212.9480000000001 95.864 175.6370000000001 141.794 175.6370000000001H858.1949999999999C904.1249999999998 175.6370000000001 941.499 212.9480000000001 941.499 258.8050000000001V741.212C941.5 787.069 904.125 824.362 858.196 824.362zM895.098 270.0610000000001C895.098 243.8770000000001 873.824 222.549 847.668 222.549H167.815C141.659 222.549 120.385 243.877 120.385 270.0609999999999V729.2850000000001C120.385 755.4680000000001 141.659 776.778 167.815 776.778L491.668 775.523L847.668 776.778C873.824 776.778 895.098 755.4680000000001 895.098 729.2850000000001V270.0610000000001z M439.874 565.604C420.319 605.0609999999999 447.529 615.134 447.529 615.134H594.673V671.373H513.023V743.577H464.548L461.993 665.5C461.993 665.5 416.063 680.61 395.644 645.354C337.813 545.458 424.272 497.328 493.458 442.198C509.75 429.198 550.443 383.431 523.2239999999999 354.885C482.8029999999999 312.483 410.1089999999999 354.885 410.1089999999999 354.885V383.43H365.034V301.99H465.3939999999999V245.751H511.314V301.99C556.3979999999999 295.2810000000001 635.4929999999999 364.957 613.3829999999999 439.6700000000001C591.273 514.3820000000001 459.439 526.1279999999999 439.874 565.604z" />
    <glyph glyph-name="my"
      unicode="&#xE01A;"
      horiz-adv-x="1000" d=" M523.054 490.5C568.689 538.2139999999999 597.2819999999999 605.2570000000001 597.2819999999999 679.5889999999999C597.2819999999999 824.013 489.8629999999999 941.501 357.824 941.501C225.785 941.501 118.366 824.0129999999999 118.366 679.5889999999999C118.366 605.74 146.579 539.045 191.69 491.393C125.777 483.4059999999999 58.5 428.9690000000001 58.5 357.8300000000001V199.1470000000001C58.5 124.8670000000001 118.919 58.5010000000001 193.198 58.5010000000001H522.448C596.727 58.5010000000001 657.146 124.8670000000001 657.146 199.1470000000001V357.8300000000001C657.146 425.755 589.407 479.896 523.054 490.5zM148.302 679.588C148.302 807.505 242.293 911.566 357.823 911.566C473.353 911.566 567.354 807.5060000000001 567.354 679.588C567.354 551.681 473.3530000000001 447.621 357.8230000000001 447.621C242.293 447.621 148.302 551.681 148.302 679.588zM627.208 199.146C627.208 141.3829999999999 580.208 88.434 522.448 88.434H193.198C135.438 88.434 88.427 141.3829999999999 88.427 199.146V357.8300000000001C88.427 416.8250000000001 152.799 462.5880000000001 208.156 462.5880000000001C212.252 462.5880000000001 215.938 464.2510000000001 218.638 466.9000000000001C257.918 436.0630000000001 305.894 417.6880000000001 357.822 417.6880000000001C408.241 417.6880000000001 455.006 434.9130000000001 493.629 464.1280000000002C495.58 463.2040000000002 497.694 462.5880000000002 500.004 462.5880000000002C557.62 462.5880000000002 627.207 415.8600000000003 627.207 357.8300000000002V199.146z M672.115 731.983H926.542C934.807 731.983 941.5 738.6659999999999 941.5 746.94S934.806 761.907 926.542 761.907H672.115C663.84 761.907 657.146 755.2139999999999 657.146 746.94S663.84 731.983 672.115 731.983z M926.542 582.313C926.542 590.587 919.838 597.28 911.574 597.28H657.146C648.871 597.28 642.1769999999999 590.587 642.1769999999999 582.313C642.1769999999999 574.049 648.8709999999999 567.346 657.146 567.346H911.573C919.837 567.346 926.542 574.05 926.542 582.313z M926.542 432.654H717.011C708.736 432.654 702.0419999999999 425.961 702.0419999999999 417.687S708.7359999999999 402.7200000000001 717.011 402.7200000000001H926.542C934.807 402.7200000000001 941.4999999999998 409.413 941.4999999999998 417.687S934.806 432.654 926.542 432.654z M911.573 268.0270000000001H717.011C708.736 268.0270000000001 702.0419999999999 261.3340000000001 702.0419999999999 253.0600000000001S708.7359999999999 238.0930000000001 717.011 238.0930000000001H911.574C919.838 238.0930000000001 926.542 244.7860000000001 926.542 253.0600000000001S919.837 268.0270000000001 911.573 268.0270000000001z" />
    <glyph glyph-name="myo"
      unicode="&#xE01B;"
      horiz-adv-x="1000" d=" M926.542 731.983H672.104C663.839 731.983 657.1460000000001 738.6659999999999 657.1460000000001 746.94S663.84 761.907 672.104 761.907H926.541C934.806 761.907 941.499 755.2139999999999 941.499 746.94S934.806 731.983 926.542 731.983zM911.573 597.28C919.837 597.28 926.541 590.587 926.541 582.313C926.541 574.049 919.837 567.346 911.573 567.346H657.146C648.871 567.346 642.1769999999999 574.049 642.1769999999999 582.313C642.1769999999999 590.587 648.8709999999999 597.28 657.146 597.28H911.573zM657.146 357.829V199.146C657.146 124.866 596.727 58.5 522.448 58.5H193.198C118.919 58.5 58.5 124.866 58.5 199.146V357.829C58.5 428.969 125.777 483.4059999999999 191.689 491.3919999999999C146.577 539.0439999999999 118.365 605.7389999999999 118.365 679.598C118.365 824.012 225.784 941.5 357.823 941.5C489.862 941.5 597.281 824.012 597.281 679.598C597.281 605.256 568.689 538.213 523.053 490.499C589.407 479.896 657.146 425.756 657.146 357.829zM717.011 432.654H926.542C934.807 432.654 941.4999999999998 425.961 941.4999999999998 417.687S934.806 402.7200000000001 926.542 402.7200000000001H717.011C708.736 402.7200000000001 702.0419999999999 409.413 702.0419999999999 417.687S708.736 432.654 717.011 432.654zM717.011 268.0270000000001H911.574C919.838 268.0270000000001 926.542 261.3340000000001 926.542 253.0600000000001S919.838 238.0930000000001 911.574 238.0930000000001H717.011C708.736 238.0930000000001 702.0419999999999 244.7860000000001 702.0419999999999 253.0600000000001S708.736 268.0270000000001 717.011 268.0270000000001z" />
    <glyph glyph-name="navigation"
      unicode="&#xE01C;"
      horiz-adv-x="1000" d=" M912.468 938.765C880.616 923.304 58.5 526.421 58.5 526.421S335.415 359.861 333.975 361.483C333.531 361.988 499.263 59.0909999999999 499.263 59.0909999999999S933.133 897.5299999999999 940.012 911.282C946.042 928.46 933.132 947.36 912.468 938.765zM401.985 377.6860000000001L352.916 426.701L868.137 867.827L401.985 377.6860000000001z" />
    <glyph glyph-name="nochecked"
      unicode="&#xE01D;"
      horiz-adv-x="1000" d=" M58.5 499.965C58.5 256.511 256.577 58.5 500.033 58.5C743.489 58.5 941.5 256.511 941.5 499.965C941.5 743.422 743.488 941.5 500.033 941.5C256.577 941.5 58.5 743.423 58.5 499.965zM117.407 499.965C117.407 711.831 289.011 884.117 500.033 884.117C710.99 884.117 882.6579999999999 711.8299999999999 882.6579999999999 499.965C882.6579999999999 288.171 710.9869999999999 115.814 500.0329999999999 115.814C289.011 115.814 117.407 288.169 117.407 499.965z" />
    <glyph glyph-name="omit"
      unicode="&#xE01E;"
      horiz-adv-x="1000" d=" M831.125 389.625C770.171 389.625 720.75 439.0460000000001 720.75 500S770.171 610.375 831.125 610.375S941.5 560.954 941.5 500S892.079 389.625 831.125 389.625zM831.125 555.187C800.648 555.187 775.937 530.4770000000001 775.937 499.999S800.647 444.8110000000001 831.125 444.8110000000001S886.313 469.5210000000001 886.313 499.999S861.602 555.187 831.125 555.187zM500 389.625C439.046 389.625 389.625 439.0460000000001 389.625 500S439.046 610.375 500 610.375S610.375 560.954 610.375 500S560.954 389.625 500 389.625zM500 555.187C469.523 555.187 444.812 530.4770000000001 444.812 499.999S469.522 444.8110000000001 500 444.8110000000001S555.188 469.5210000000001 555.188 499.999S530.477 555.187 500 555.187zM168.875 389.625C107.921 389.625 58.5 439.0460000000001 58.5 500S107.921 610.375 168.875 610.375S279.25 560.954 279.25 500S229.829 389.625 168.875 389.625zM168.875 555.187C138.398 555.187 113.687 530.4770000000001 113.687 499.999S138.397 444.8110000000001 168.875 444.8110000000001S224.063 469.5210000000001 224.063 499.999S199.352 555.187 168.875 555.187z" />
    <glyph glyph-name="openfolder"
      unicode="&#xE01F;"
      horiz-adv-x="1000" d=" M937.484 593.946C937.484 625.533 913.98 647.6020000000001 882.754 647.6020000000001V835.42C882.754 851.2049999999999 874.586 853.81 860.0740000000001 859.604C848.863 864.074 837.9760000000001 861.392 824.72 857.824L62.171 655.847V598.631V195.261C62.171 163.674 87.481 138.054 118.724 138.054H881.2750000000001C912.5000000000002 138.054 937.828 163.674 937.828 195.261L937.484 593.946zM828.023 808.587L828.023 808.587V647.602H226.002L828.023 808.587zM882.754 406.136C882.754 390.3349999999999 882.754 372.1429999999999 882.754 352.472H773.293C773.293 370.9650000000001 773.293 390.3350000000001 773.293 406.136C773.293 421.921 773.293 420.168 773.293 432.9599999999999H882.754C882.754 411.519 882.754 421.9210000000001 882.754 406.136zM882.754 486.625H745.936C730.307 486.625 718.563 448.7530000000001 718.563 432.9600000000001V352.472C718.563 336.679 730.307 298.807 745.936 298.807H882.754L881.275 223.8730000000001C881.275 208.0700000000001 871.007 191.494 855.379 191.494H143.915C128.302 191.494 116.558 202.515 116.558 218.318C116.558 218.318 116.558 574.2819999999999 116.558 593.944H855.381C871.01 593.944 882.754 582.913 882.754 567.111V486.625L882.754 486.625z" />
    <glyph glyph-name="order"
      unicode="&#xE020;"
      horiz-adv-x="1000" d=" M503.648 941.5H499.909C258.5190000000001 941.5 60.5190000000001 743.23 58.515 503.62C57.5330000000001 386.587 102.537 274.5170000000001 185.2290000000001 191.0750000000001S378.418 58.5 496.352 58.5H500.06C741.451 58.5 939.48 256.79 941.485 496.39C943.469 737.956 747.063 927.483 503.648 941.5zM500.06 86.535L496.592 86.545C386.196 87.448 282.786 130.964 205.366 209.063C127.966 287.161 85.839 393.856 86.761 503.379C88.635 727.668 273.976 913.465 499.91 913.465H503.409C731.258 899.457 915.104 722.745 913.22 496.611C911.355 272.341 726.005 86.535 500.06 86.535z M514.153 502.336L516.759 814.38C516.84 822.111 510.565 829.37 502.747 829.37H502.647C494.889 829.37 488.594 822.301 488.514 814.6L485.868 497.192C485.848 493.482 487.311 489.692 489.928 487.035L664.092 311.205C666.848 308.4169999999999 670.507 306.964 674.1659999999999 306.964C677.7339999999999 306.964 681.3219999999999 308.277 684.069 310.964C689.622 316.3989999999999 689.702 325.253 684.2289999999999 330.767L514.153 502.336z" />
    <glyph glyph-name="ordero"
      unicode="&#xE021;"
      horiz-adv-x="1000" d=" M503.658 941.5H499.923C258.531 941.5 60.517 743.23 58.515 503.619C57.54 386.587 102.539 274.5170000000001 185.24 191.074C267.941 107.641 378.432 58.5 496.362 58.5H500.077C741.4590000000001 58.5 939.484 256.79 941.484 496.39C943.485 737.966 747.072 927.492 503.658 941.5zM684.074 310.975C681.334 308.278 677.742 306.9640000000001 674.1709999999999 306.9640000000001C670.5179999999999 306.9640000000001 666.8639999999999 308.418 664.1039999999999 311.2150000000001L489.9379999999999 487.0350000000001C487.3109999999999 489.6920000000001 485.8539999999999 493.4820000000001 485.884 497.1920000000001L488.5309999999999 814.6000000000001C488.593 822.3000000000001 494.893 829.3800000000001 502.6519999999999 829.3800000000001H502.764C510.564 829.3800000000001 516.8439999999999 822.1100000000001 516.7729999999999 814.3800000000001L514.1669999999999 502.3460000000001L684.2379999999999 330.7790000000001C689.708 325.2530000000001 689.635 316.4 684.074 310.975z" />
    <glyph glyph-name="packge"
      unicode="&#xE022;"
      horiz-adv-x="1000" d=" M826.981 153.106H173.037C112.862 153.106 64.069 200.923 64.069 259.832V740.15C64.069 799.1089999999999 112.862 846.893 173.037 846.893H826.981C887.156 846.893 935.931 799.1089999999999 935.931 740.15V259.832C935.933 200.924 887.156 153.106 826.981 153.106zM881.439 740.15C881.439 769.6379999999999 857.068 793.53 826.947 793.53H173.037C142.9330000000001 793.53 118.5440000000001 769.6379999999999 118.5440000000001 740.15V259.832C118.5440000000001 230.361 142.9320000000001 206.471 173.037 206.471H826.981C857.068 206.471 881.506 230.3630000000001 881.506 259.832V740.15H881.439zM772.455 499.982H663.471C633.417 499.982 608.979 523.8910000000001 608.979 553.379V660.105C608.979 689.542 633.35 713.451 663.471 713.451H772.455C802.542 713.451 826.981 689.542 826.981 660.105V553.379C826.981 523.8910000000001 802.542 499.982 772.455 499.982zM772.455 633.424C772.455 648.142 760.269 660.106 745.243 660.106H690.716C675.725 660.106 663.504 648.143 663.504 633.424V580.044C663.504 565.325 675.725 553.3789999999999 690.716 553.3789999999999H745.243C760.269 553.3789999999999 772.455 565.325 772.455 580.044V633.424zM527.238 286.531H200.283C185.24 286.531 173.037 298.4419999999999 173.037 313.195C173.037 327.914 185.24 339.892 200.283 339.892H527.2379999999999C542.2629999999999 339.892 554.4839999999999 327.9129999999999 554.4839999999999 313.195C554.484 298.442 542.266 286.531 527.238 286.531zM527.238 393.2580000000001H200.283C185.24 393.2580000000001 173.037 405.2030000000001 173.037 419.9890000000001C173.037 434.7080000000001 185.24 446.654 200.283 446.654H527.2379999999999C542.2629999999999 446.654 554.4839999999999 434.708 554.4839999999999 419.9890000000001C554.484 405.203 542.266 393.2580000000001 527.238 393.2580000000001z" />
    <glyph glyph-name="phone"
      unicode="&#xE023;"
      horiz-adv-x="1000" d=" M495.904 918.743L507.531 735.817L465.301 723.6279999999999L444.995 923.649L495.904 918.743zM677.223 90.649L491.98 94.427C185.994 421.636 235.857 802.201 235.857 802.201L375.23 921.972H402.6860000000001L425.025 712.7L364.027 672.216L519.998 263.6330000000001L581.135 283.11L698.376 108.431L677.223 90.649zM736.059 129.577L612.022 301.4550000000001L659.0160000000001 321.6230000000001L767.1550000000001 160.6810000000001L736.059 129.577z" />
    <glyph glyph-name="phone2"
      unicode="&#xE024;"
      horiz-adv-x="1000" d=" M833.143 924.591L914.814 842.8779999999999C959.931 797.761 938.234 743.902 914.814 679.479C914.814 679.479 802.509 488.045 657.3180000000001 342.813C502.9540000000001 188.4210000000001 322.6680000000001 87.1659999999999 322.6680000000001 87.1659999999999C263.0960000000001 56.5179999999999 204.4140000000001 42.049 159.3110000000001 87.1659999999999L77.6400000000001 168.8649999999999C55.0820000000001 191.4229999999999 50.2590000000001 231.6339999999999 77.6400000000001 250.5639999999999L240.9830000000001 373.1129999999999C268.6420000000001 391.8489999999998 300.1100000000002 395.6709999999998 322.6690000000001 373.1129999999999L322.6690000000001 373.1129999999999L322.6690000000001 373.1129999999999L370.9820000000001 324.7849999999999C427.6210000000001 367.0659999999998 490.6540000000001 418.5909999999999 547.2790000000001 475.2299999999998C597.3580000000001 525.3359999999998 641.8770000000001 579.6679999999998 678.9320000000001 629.4829999999997L628.9510000000001 679.4789999999998C606.3930000000001 702.0509999999997 610.2290000000002 733.5189999999998 628.9510000000001 761.1779999999998L751.458 924.591C774.016 947.136 810.585 947.136 833.143 924.591" />
    <glyph glyph-name="plate"
      unicode="&#xE025;"
      horiz-adv-x="1000" d=" M62.5 264.271V735.713C62.5 775.817 96.193 808.4100000000001 137.57 808.4100000000001H862.4469999999999C903.8419999999998 808.4100000000001 937.4999999999998 775.817 937.4999999999998 735.713V264.271C937.4999999999998 224.183 903.8419999999998 191.589 862.4469999999999 191.589H137.604C96.193 191.59 62.5 224.217 62.5 264.271zM855.537 245.4980000000001C878.6410000000001 245.4980000000001 882.904 249.9690000000001 882.904 272.3140000000001V728.2860000000001C882.904 750.633 878.605 755.12 855.537 755.12H144.291C121.222 755.12 116.924 750.633 116.924 728.2860000000001V272.2440000000001C116.924 249.898 121.222 245.4300000000001 144.291 245.4300000000001H855.537V245.4980000000001zM253.707 325.914V674.636C253.707 683.5060000000001 271.912 701.453 281.057 701.453C290.254 701.453 308.4240000000001 683.54 308.4240000000001 674.636V325.914C308.4240000000001 317.045 290.2190000000001 299.098 281.057 299.098C271.911 299.1330000000001 253.707 317.045 253.707 325.914zM363.123 325.914V674.636C363.123 683.5060000000001 381.328 701.453 390.473 701.453C399.67 701.453 417.8400000000001 683.54 417.8400000000001 674.636V325.914C417.8400000000001 317.045 399.6350000000001 299.098 390.473 299.098C381.327 299.1330000000001 363.123 317.045 363.123 325.914zM472.539 325.914V674.636C472.539 683.5060000000001 490.744 701.453 499.906 701.453C509.052 701.453 527.256 683.54 527.256 674.636V325.914C527.256 317.045 509.191 300.301 500.01 300.301C490.846 300.3010000000001 472.539 317.045 472.539 325.914zM582.006 325.914V674.636C582.006 683.5060000000001 600.194 701.453 609.3389999999999 701.453C618.553 701.453 636.7049999999999 683.54 636.7049999999999 674.636V325.914C636.7049999999999 317.045 618.482 299.098 609.3389999999999 299.098C600.158 299.1330000000001 582.006 317.045 582.006 325.914zM691.439 325.914V674.636C691.439 683.5060000000001 709.627 701.453 718.771 701.453C727.9509999999999 701.453 746.1049999999999 683.54 746.1049999999999 674.636V325.914C746.1049999999999 317.045 727.9169999999999 299.098 718.771 299.098C709.626 299.1330000000001 691.439 317.045 691.439 325.914z" />
    <glyph glyph-name="position"
      unicode="&#xE026;"
      horiz-adv-x="1000" d=" M499.991 60.915C444.198 60.634 164.477 472.0329999999999 164.477 609.757C164.477 791.621 314.665 939.084 499.991 939.084C685.3 939.084 835.524 791.621 835.524 609.757C835.523 473.932 554.904 60.634 499.991 60.915zM499.991 884.187C345.567 884.187 220.393 761.316 220.393 609.7570000000001C220.393 495.025 453.479 142.9680000000001 499.991 143.251C545.764 142.971 779.5889999999999 496.537 779.5889999999999 609.757C779.59 761.316 654.396 884.187 499.991 884.187zM499.991 472.561C422.787 472.561 360.209 534.014 360.209 609.792C360.209 685.572 422.822 747.0250000000001 499.991 747.0250000000001C577.158 747.0250000000001 639.807 685.572 639.807 609.792C639.807 534.0129999999999 577.229 472.561 499.991 472.561zM499.991 692.076C453.672 692.076 416.125 655.215 416.125 609.7570000000001C416.125 564.2819999999999 453.672 527.421 499.991 527.421C546.326 527.421 583.873 564.2470000000001 583.873 609.7570000000001C583.873 655.267 546.326 692.076 499.991 692.076z" />
    <glyph glyph-name="position2"
      unicode="&#xE027;"
      horiz-adv-x="1000" d=" M500 58.5C500 58.5 184.467 459.044 184.467 630.688C184.467 802.333 325.729 941.5 500 941.5C674.251 941.5 815.533 802.333 815.533 630.6890000000001C815.533 459.044 500 58.5 500 58.5zM496.756 762.999C422.564 762.999 362.455 703.773 362.455 630.7090000000001S422.564 498.398 496.756 498.398C570.928 498.398 631.058 557.645 631.058 630.7090000000001S570.928 762.999 496.756 762.999z" />
    <glyph glyph-name="supporting"
      unicode="&#xE028;"
      horiz-adv-x="1000" d=" M910.518 440.174L541.023 277.074C505.676 261.958 491.553 261.958 458.909 277.074L89.448 440.174C69.833 450.4 64.55 488.259 64.55 508.916C89.242 495.1 123.904 479.675 122.621 480.496L500 309.6330000000001L877.377 480.495C878.0269999999999 480.6319999999999 911.681 497.269 935.448 508.967C935.449 487.814 928.746 448.553 910.518 440.174zM910.518 611.0360000000001L541.022 447.937C505.6750000000001 432.7870000000001 491.552 432.7870000000001 458.908 447.937L89.447 611.0360000000001C60.411 626.1700000000001 61.335 673.793 89.447 691.594L458.908 883.198C491.552 899.203 512.004 900.075 541.022 883.198L910.517 691.594C938.664 676.46 937.741 623.519 910.518 611.0360000000001zM500 850.658L122.623 651.3240000000001L500 495.167L877.377 651.324L500 850.658zM500 138.771L877.377 309.564C878.0269999999999 309.736 911.681 326.357 935.448 338.0519999999999C935.448 316.882 928.745 277.656 910.516 269.3119999999999L541.09 106.212C505.711 91.096 491.587 91.096 458.96 106.212L89.481 269.312C69.867 279.538 64.584 317.396 64.584 338.052C89.242 324.201 123.903 308.812 122.655 309.5640000000001L500 138.771z" />
    <glyph glyph-name="thin-code"
      unicode="&#xE029;"
      horiz-adv-x="1000" d=" M248.036 941.5H183.581C130.844 941.5 87.932 902.938 87.932 849.473V785.601C87.932 732.136 130.844 683.694 183.581 683.694H248.036C300.78 683.694 343.699 732.136 343.699 785.601V849.473C343.698 902.938 300.779 941.5 248.036 941.5zM306.635 785.601C306.635 752.8530000000001 280.354 721.271 248.036 721.271H183.581C151.277 721.271 124.996 752.8530000000001 124.996 785.601V849.473C124.996 882.221 151.278 903.923 183.581 903.923H248.036C280.354 903.923 306.635 882.221 306.635 849.473V785.601z M532.221 941.5H467.766C415.023 941.5 372.1180000000001 902.938 372.1180000000001 849.473V785.601C372.1180000000001 732.136 415.023 683.694 467.7660000000001 683.694H532.2210000000001C584.9650000000001 683.694 627.8840000000001 732.136 627.8840000000001 785.601V849.473C627.884 902.938 584.964 941.5 532.221 941.5zM590.82 785.601C590.82 752.8530000000001 564.538 721.271 532.22 721.271H467.765C435.461 721.271 409.1800000000001 752.8530000000001 409.1800000000001 785.601V849.473C409.1800000000001 882.221 435.4610000000001 903.923 467.765 903.923H532.22C564.538 903.923 590.82 882.221 590.82 849.473V785.601z M816.406 941.5H751.9509999999999C699.2069999999999 941.5 656.3019999999999 902.938 656.3019999999999 849.473V785.601C656.3019999999999 732.136 699.2069999999999 683.694 751.9509999999999 683.694H816.406C869.149 683.694 912.069 732.136 912.069 785.601V849.473C912.069 902.938 869.149 941.5 816.406 941.5zM875.005 785.601C875.005 752.8530000000001 848.723 721.271 816.406 721.271H751.9509999999999C719.6469999999999 721.271 693.3659999999999 752.8530000000001 693.3659999999999 785.601V849.473C693.3659999999999 882.221 719.6469999999998 903.923 751.9509999999999 903.923H816.406C848.723 903.923 875.005 882.221 875.005 849.473V785.601z M248.036 628.896H183.581C130.844 628.896 87.932 590.3330000000001 87.932 536.869V472.996C87.932 419.531 130.844 371.089 183.581 371.089H248.036C300.78 371.089 343.699 419.531 343.699 472.996V536.8689999999999C343.698 590.3340000000001 300.779 628.896 248.036 628.896zM306.635 472.997C306.635 440.2489999999999 280.354 408.681 248.036 408.681H183.581C151.277 408.681 124.996 440.2489999999999 124.996 472.997V536.8699999999999C124.996 569.6179999999999 151.278 591.3199999999999 183.581 591.3199999999999H248.036C280.354 591.3199999999999 306.635 569.6179999999999 306.635 536.8699999999999V472.997z M532.221 628.896H467.766C415.023 628.896 372.1180000000001 590.3330000000001 372.1180000000001 536.869V472.996C372.1180000000001 419.531 415.023 371.089 467.7660000000001 371.089H532.2210000000001C584.9650000000001 371.089 627.8840000000001 419.531 627.8840000000001 472.996V536.8689999999999C627.884 590.3340000000001 584.964 628.896 532.221 628.896zM590.82 472.997C590.82 440.2489999999999 564.538 408.681 532.22 408.681H467.765C435.461 408.681 409.1800000000001 440.2489999999999 409.1800000000001 472.997V536.8699999999999C409.1800000000001 569.6179999999999 435.4610000000001 591.3199999999999 467.765 591.3199999999999H532.22C564.538 591.3199999999999 590.82 569.6179999999999 590.82 536.8699999999999V472.997z M816.406 628.896H751.9509999999999C699.2069999999999 628.896 656.3019999999999 590.3330000000001 656.3019999999999 536.869V472.996C656.3019999999999 419.531 699.2069999999999 371.089 751.9509999999999 371.089H816.406C869.149 371.089 912.069 419.531 912.069 472.996V536.8689999999999C912.069 590.3340000000001 869.149 628.896 816.406 628.896zM875.005 472.997C875.005 440.2489999999999 848.723 408.681 816.406 408.681H751.9509999999999C719.6469999999999 408.681 693.3659999999999 440.2489999999999 693.3659999999999 472.997V536.8699999999999C693.3659999999999 569.6179999999999 719.6469999999998 591.3199999999999 751.9509999999999 591.3199999999999H816.406C848.723 591.3199999999999 875.005 569.6179999999999 875.005 536.8699999999999V472.997z M248.036 316.2920000000001H183.581C130.844 316.2920000000001 87.932 277.73 87.932 224.265V160.393C87.932 106.928 130.844 58.5 183.581 58.5H248.036C300.78 58.5 343.699 106.928 343.699 160.393V224.265C343.698 277.73 300.779 316.2920000000001 248.036 316.2920000000001zM306.635 160.393C306.635 127.645 280.354 96.077 248.036 96.077H183.581C151.277 96.077 124.996 127.645 124.996 160.393V224.265C124.996 257.0130000000001 151.278 278.716 183.581 278.716H248.036C280.354 278.716 306.635 257.0130000000001 306.635 224.265V160.393z M532.221 316.2920000000001H467.766C415.023 316.2920000000001 372.1180000000001 277.73 372.1180000000001 224.265V160.393C372.1180000000001 106.928 415.023 58.5 467.7660000000001 58.5H532.2210000000001C584.9650000000001 58.5 627.8840000000001 106.928 627.8840000000001 160.393V224.265C627.884 277.73 584.964 316.2920000000001 532.221 316.2920000000001zM590.82 160.393C590.82 127.645 564.538 96.077 532.22 96.077H467.765C435.461 96.077 409.1800000000001 127.645 409.1800000000001 160.393V224.265C409.1800000000001 257.0130000000001 435.4610000000001 278.716 467.765 278.716H532.22C564.538 278.716 590.82 257.0130000000001 590.82 224.265V160.393z M816.406 316.2920000000001H751.9509999999999C699.2069999999999 316.2920000000001 656.3019999999999 277.73 656.3019999999999 224.265V160.393C656.3019999999999 106.928 699.2069999999999 58.5 751.9509999999999 58.5H816.406C869.149 58.5 912.069 106.928 912.069 160.393V224.265C912.069 277.73 869.149 316.2920000000001 816.406 316.2920000000001zM875.005 160.393C875.005 127.645 848.723 96.077 816.406 96.077H751.9509999999999C719.6469999999999 96.077 693.3659999999999 127.645 693.3659999999999 160.393V224.265C693.3659999999999 257.0130000000001 719.6469999999998 278.716 751.9509999999999 278.716H816.406C848.723 278.716 875.005 257.0130000000001 875.005 224.265V160.393z" />
    <glyph glyph-name="thin-eye"
      unicode="&#xE02A;"
      horiz-adv-x="1000" d=" M941.496 539.8520000000001C939.771 536.481 898.694 456.405 824.8309999999999 375.213C725.6859999999999 266.211 614.685 208.5940000000001 503.881 208.5940000000001H496.091C385.296 208.5940000000001 274.305 266.1320000000001 175.151 375.0360000000001C101.278 456.131 60.221 536.119 58.4959999999999 539.49L61.4259999999999 540.999L59.721 542.155C66.5989999999999 552.317 231.416 790.418 496.091 790.418H503.881C768.567 790.418 933.383 551.533 940.261 541.352L939.497 540.832L941.496 539.8520000000001zM712.2429999999999 715.927C653.332 748.675 583.173 772.937 503.9 772.937H496.11C414.3 772.937 342.23 747.137 282.212 712.88C268.18 682.572 259.9980000000001 628.953 259.9980000000001 593.335C259.9980000000001 461.364 366.6190000000001 354.009 497.678 354.009C628.7570000000001 354.009 735.3679999999999 461.384 735.3679999999999 593.335C735.3679999999999 630.06 727 684.846 712.2429999999999 715.927zM742.971 704.11C748.988 681.534 752.5740000000001 617.861 752.5740000000001 593.354C752.5740000000001 440.7080000000001 649.2950000000001 336.5470000000001 497.678 336.5470000000001S242.772 440.708 242.772 593.354C242.772 616.3720000000001 245.927 678.741 251.268 700.1120000000001C187.408 653.9200000000001 102.639 562.527 82.551 537.08C122.344 469.125 288.786 226.0750000000001 496.11 226.0750000000001H503.9C710.557 226.0750000000001 876.7840000000001 468.028 917.096 536.825C896.2249999999999 563.2719999999999 809.642 656.929 742.971 704.11zM394.369 530.818C346.825 530.818 308.159 569.729 308.159 617.616C308.159 665.483 346.825 704.404 394.369 704.404C441.912 704.404 480.579 665.5029999999999 480.579 617.616C480.579 569.729 441.913 530.818 394.369 530.818zM394.369 686.953C356.742 689.461 325.375 647.7180000000001 325.375 617.617C325.375 587.515 354.252 548.241 394.3690000000001 548.241C434.505 548.241 463.362 574.972 463.362 617.617C463.362 660.26 431.997 684.444 394.369 686.953z" />
    <glyph glyph-name="thin-mobile"
      unicode="&#xE02B;"
      horiz-adv-x="1000" d=" M759.8589999999999 941.502H241.156C216.197 941.502 195.899 921.296 195.899 896.398V103.615C195.899 78.7480000000001 216.197 58.501 241.156 58.501H759.8589999999999C784.829 58.501 805.095 78.7480000000001 805.095 103.615V896.398C805.117 921.296 784.829 941.502 759.8589999999999 941.502zM241.156 913.914H759.8589999999999C769.51 913.914 777.395 906.05 777.395 896.3979999999999V831.1299999999999H223.5989999999999V896.3979999999999C223.599 906.05 231.484 913.914 241.156 913.914zM759.8589999999999 86.1210000000001H241.156C231.484 86.1210000000001 223.599 93.985 223.599 103.6370000000001V803.5440000000001H777.4359999999999V103.6170000000001C777.4359999999999 93.9639999999999 769.5509999999999 86.1210000000001 759.8589999999999 86.1210000000001zM431.281 872.5070000000001C431.281 880.146 437.462 886.306 445.132 886.306H555.914C563.553 886.306 569.754 880.145 569.754 872.5070000000001C569.754 864.879 563.553 858.7180000000001 555.914 858.7180000000001H445.132C437.483 858.7180000000001 431.281 864.8779999999999 431.281 872.5070000000001zM542.053 168.893C542.053 146.1 523.428 127.4970000000001 500.502 127.4970000000001C477.575 127.4970000000001 458.951 146.06 458.951 168.893S477.576 210.29 500.503 210.29C523.428 210.29 542.053 191.7270000000001 542.053 168.893z" />
    <glyph glyph-name="thin-password"
      unicode="&#xE02C;"
      horiz-adv-x="1000" d=" M738.995 57.991H261.053C222.927 57.991 191.911 92.8970000000001 191.911 131.375V627.6320000000001C191.911 666.1300000000001 222.926 693.9050000000001 261.053 693.9050000000001H352.663V792.1650000000001C352.663 874.2260000000001 418.765 940.99 500.014 940.99C581.2719999999999 940.99 647.354 874.2260000000001 647.354 792.1650000000001V693.9050000000001H738.9549999999999C777.0709999999999 693.9050000000001 808.086 666.1300000000001 808.086 627.6320000000001V131.375C808.126 92.8969999999999 777.111 57.991 738.995 57.991zM620.592 792.185C620.592 859.331 566.507 913.957 500.033 913.957C433.56 913.957 379.465 859.3299999999999 379.465 792.185V693.925H620.592V792.185zM781.3240000000001 627.6320000000001C781.3240000000001 651.194 762.346 666.8520000000001 738.995 666.8520000000001H647.394V677.6750000000001C647.394 670.192 641.376 664.154 633.994 664.154S620.593 670.193 620.593 677.6750000000001V666.8520000000001H379.465V677.6750000000001C379.465 670.192 373.466 664.154 366.074 664.154S352.683 670.193 352.683 677.6750000000001V666.8520000000001H261.083C237.722 666.8520000000001 218.724 651.214 218.724 627.6320000000001V131.375C218.724 107.7830000000001 237.722 85.0540000000001 261.083 85.0540000000001H738.9949999999999C762.366 85.0540000000001 781.345 107.783 781.345 131.375V627.6320000000001H781.3240000000001zM754.543 220.367H245.5060000000001C238.1130000000001 220.367 232.1150000000001 226.4260000000001 232.1150000000001 233.908C232.1150000000001 241.3910000000001 238.1130000000001 247.4500000000001 245.5060000000001 247.4500000000001H754.543C761.9449999999999 247.4500000000001 767.924 241.391 767.924 233.908C767.963 226.425 761.9449999999999 220.367 754.543 220.367zM499.934 364.206C492.531 364.206 486.533 370.265 486.533 377.7470000000001V485.979C486.533 493.482 492.531 499.5 499.934 499.5C507.347 499.5 513.345 493.481 513.345 485.979V377.7470000000001C513.3439999999999 370.265 507.346 364.206 499.934 364.206z" />
    <glyph glyph-name="ticket"
      unicode="&#xE02D;"
      horiz-adv-x="1000" d=" M903.104 224.239C903.104 192.442 877.316 166.645 845.51 166.645C813.713 166.645 787.934 192.442 787.934 224.239V665.7760000000001C787.934 671.044 785.797 675.787 782.375 679.255C778.897 682.78 774.079 684.973 768.735 684.973H173.67V780.9639999999999C173.67 802.168 190.862 819.36 212.057 819.36H404.019C425.223 819.36 442.415 802.168 442.415 780.9639999999999V723.37H903.103V224.239zM154.481 166.645C122.675 166.645 96.896 192.442 96.896 224.239V646.578H749.5469999999999V224.239C749.5469999999999 202.529 757.0179999999999 182.731 769.1669999999999 166.645H154.481zM922.302 761.767H480.802V780.965C480.802 823.373 446.427 857.7570000000001 404.019 857.7570000000001H212.057C169.658 857.7570000000001 135.283 823.373 135.283 780.965V684.9739999999999H77.698C67.096 684.9739999999999 58.5 676.3879999999999 58.5 665.7760000000001V224.2380000000001C58.5 171.2370000000001 101.461 128.2470000000001 154.472 128.2470000000001H154.481H845.51H845.519C898.529 128.2470000000001 941.5 171.2370000000001 941.5 224.2380000000001V742.5680000000001C941.5 753.1800000000001 932.904 761.767 922.302 761.767z" />
    <glyph glyph-name="time"
      unicode="&#xE02E;"
      horiz-adv-x="1000" d=" M500 69.6760000000001C257.7290000000001 69.6760000000001 61.315 262.336 61.315 500.0090000000001C61.314 737.682 257.691 930.325 500 930.325C742.309 930.325 938.686 737.682 938.686 500.009C938.686 262.336 742.271 69.6760000000001 500 69.6760000000001zM500 876.521C288.024 876.521 116.167 707.956 116.167 500.008C116.167 292.059 288.025 123.4970000000001 500 123.4970000000001C711.958 123.4970000000001 883.8330000000001 292.0600000000001 883.8330000000001 500.0080000000001C883.832 707.957 711.957 876.521 500 876.521zM774.168 473.098V526.9H829.02V473.096H774.168V473.098zM697.316 279.664L658.541 317.703L697.316 355.707L736.087 317.703L697.316 279.664zM666.561 707.809L704.5260000000001 745.095L742.456 707.809L704.5260000000001 670.5060000000001L666.561 707.809zM472.574 231.029H527.426V177.281H472.5740000000001V231.029zM500 472.473H253.241C238.102 472.473 225.8330000000001 484.539 225.8330000000001 499.366C225.8330000000001 514.246 238.1020000000001 526.258 253.2410000000001 526.258H472.611V795.843C472.611 810.7239999999999 484.8990000000001 822.735 500.037 822.735C515.176 822.735 527.4630000000001 810.687 527.4630000000001 795.843V499.365C527.426 484.539 515.139 472.473 500 472.473zM249.523 706.483L288.28 744.523L327.055 706.483L288.28 668.462L249.523 706.483zM321.813 316.27L283.884 278.963L245.937 316.27L283.884 353.573L321.813 316.27z" />
    <glyph glyph-name="user"
      unicode="&#xE02F;"
      horiz-adv-x="1000" d=" M644.816 60.2670000000001H355.1660000000001C259.1860000000001 60.2670000000001 181.3750000000001 134.1120000000001 181.3750000000001 225.2000000000001V335.0950000000001C181.3750000000001 407.302 230.5750000000001 467.98 298.6720000000001 490.3150000000001C261.5680000000001 537.769 239.2870000000001 598.609 239.2870000000001 664.9060000000001C239.2870000000001 816.7070000000001 356.0020000000001 939.734 500.0000000000001 939.734C644.018 939.734 760.7130000000001 816.7070000000001 760.7130000000001 664.9060000000001C760.7130000000001 598.609 738.45 537.8230000000001 701.3480000000001 490.3150000000001C769.446 467.98 818.6250000000001 407.302 818.6250000000001 335.0950000000001V225.1990000000001C818.626 134.111 740.816 60.2670000000001 644.816 60.2670000000001zM702.729 664.905C702.729 786.3489999999999 611.969 884.803 500 884.803C388.032 884.803 297.253 786.385 297.253 664.905C297.253 543.479 388.032 445.0609999999999 500 445.0609999999999C611.969 445.062 702.729 543.5160000000001 702.729 664.905zM760.714 321.379C760.714 379.838 713.971 428.475 651.293 441.4250000000001C608.622 409.2680000000001 556.494 390.134 499.964 390.134C443.489 390.134 391.342 409.2680000000001 348.618 441.425C285.995 428.5469999999999 239.251 379.838 239.251 321.3789999999999V238.9489999999999C239.251 170.6699999999999 302.911 115.2669999999998 381.43 115.2669999999998H618.48C696.982 115.2669999999998 760.639 170.6319999999998 760.639 238.9489999999999V321.3789999999999H760.714z" />
    <glyph glyph-name="warn"
      unicode="&#xE030;"
      horiz-adv-x="1000" d=" M933.97 183.9450000000001C916.88 214.0260000000001 571.95 815.21 542.446 866.5150000000001C523.059 900.2120000000001 476.854 899.6460000000001 457.456 866.5150000000001C435.819 829.579 89.123 226.11 65.037 182.4020000000001C47.37 150.4010000000001 66.886 108.4240000000001 107.073 108.4240000000001C147.848 108.4240000000001 863.562 108.4240000000001 891.687 108.4240000000001C928.163 108.424 955.312 146.408 933.97 183.9450000000001zM566.391 654.77L547.746 328.5550000000001H456.902L439.459 654.77H566.391zM549.418 194.8630000000001C537.722 184.3100000000001 522.894 179.033 504.932 179.033C486.947 179.033 472.013 184.428 460.105 195.192C448.197 206.428 442.25 219.667 442.25 234.943C442.25 250.6670000000001 448.198 263.799 460.105 274.352C472.012 284.8930000000001 486.947 290.182 504.932 290.182C522.6700000000001 290.182 537.392 284.8930000000001 549.076 274.352C560.748 264.023 566.602 250.878 566.602 234.943C566.603 218.784 560.867 205.404 549.418 194.8630000000001z" />
    <glyph glyph-name="wrench"
      unicode="&#xE031;"
      horiz-adv-x="1000" d=" M916.342 782.793C901.462 766.117 876.742 744.831 841.323 712.456C803.805 675.012 750.7189999999999 675.012 713.189 712.456C675.6709999999999 749.915 675.6709999999999 802.887 713.189 840.332C747.747 874.819 784.918 915.711 784.3149999999999 915.869C683.8739999999999 962.119 561.068 944.251 478.278 861.633C402.857 786.37 381.312 677.9570000000001 413.07 583.461L93.877 264.943C46.708 217.86 46.708 141.534 93.877 94.452C141.06 47.369 217.544 47.369 264.727 94.452L583.92 412.9840000000001C678.616 381.2850000000001 787.26 402.7870000000001 862.681 478.048C945.385 560.5799999999999 962.534 682.6379999999999 916.342 782.793zM819.98 520.679C752.3580000000001 453.188 650.696 441.94 570.621 485.001L478.308 392.847C478.294 392.832 478.294 392.819 478.28 392.804L438.306 352.9169999999999L435.563 350.1879999999999L222.011 137.082C198.426 113.541 160.177 113.541 136.593 137.082C112.994 160.6230000000001 112.994 198.77 136.593 222.327L352.888 438.163L485.202 570.2470000000001C442.098 650.1500000000001 453.388 751.554 520.995 819.018C561.528 859.479 614.428 878.697 667.543 879.358C611.885 820.296 612.6320000000001 727.567 670.487 669.842C728.328 612.116 821.228 611.3689999999999 880.42 666.8969999999999C879.76 613.896 860.499 561.1120000000001 819.98 520.679z" />
  </font>
</defs>
</svg>
